<svg width="24" height="24" viewBox="0 0 24 24" fill="none" xmlns="http://www.w3.org/2000/svg">
<path d="M20.5442 10.3504C21.1519 11.3712 21.1519 12.6288 20.5442 13.6495L17.7453 18.3504C17.1375 19.3711 16.0144 20 14.7988 20H9.20113C7.98562 20 6.86244 19.3711 6.25468 18.3504L3.45582 13.6495C2.84806 12.6288 2.84806 11.3712 3.45582 10.3504L6.25468 5.64956C6.86244 4.62881 7.98562 4 9.20113 4H14.7988C16.0144 4 17.1375 4.62881 17.7453 5.64956L20.5442 10.3504Z" fill="#4487F9"/>
<path d="M17.4001 16.5595L15.4311 14.5136C16.1054 13.6841 16.4992 12.6347 16.4992 11.5296C16.4992 8.87682 14.3063 6.66663 11.5497 6.66663C8.793 6.66663 6.6001 8.82117 6.6001 11.5296C6.6001 14.238 8.793 16.3925 11.5497 16.3925C12.6744 16.3925 13.7425 16.0056 14.5868 15.3431L16.4992 17.3333L17.4001 16.5595ZM11.6063 15.2318C9.52397 15.2318 7.83816 13.5729 7.83816 11.5296C7.83816 9.48634 9.52667 7.82737 11.6063 7.82737C13.6859 7.82737 15.3745 9.48634 15.3745 11.5296C15.3745 13.5729 13.6293 15.2318 11.6063 15.2318Z" fill="white"/>
<path d="M12.0001 10.5927C12.0001 10.3882 11.7986 10.2223 11.5501 10.2223C11.3016 10.2223 11.1001 10.3881 11.1001 10.5927V13.4074C11.1001 13.6119 11.3016 13.7778 11.5501 13.7778C11.7986 13.7778 12.0001 13.6119 12.0001 13.4074V10.5927Z" fill="white"/>
<path d="M9.5 13.2907C9.5 13.3935 9.55267 13.4921 9.64644 13.5647C9.96143 13.8089 10.5 13.636 10.5 13.2907V12.2888C10.5 12.0747 10.2761 11.9012 9.99999 11.9012C9.72385 11.9012 9.5 12.0747 9.5 12.2888V13.2907Z" fill="white"/>
<path d="M12.5 13.3895C12.5 13.4922 12.5474 13.5909 12.6318 13.6635C12.9153 13.9076 13.4 13.7347 13.4 13.3895V12.3875C13.4 12.1735 13.1985 12 12.95 12C12.7015 12 12.5 12.1735 12.5 12.3875V13.3895Z" fill="white"/>
</svg>
