<svg xmlns="http://www.w3.org/2000/svg" width="13" height="14" viewBox="0 0 13 14" fill="none">
  <path d="M7.0984 7.50214L7.10511 7.50941L7.11211 7.51641L11.4235 11.8278C11.5025 11.9068 11.5469 12.014 11.5469 12.1257C11.5469 12.2374 11.5025 12.3446 11.4235 12.4236C11.3445 12.5026 11.2374 12.547 11.1257 12.547C11.0139 12.547 10.9068 12.5026 10.8278 12.4236L6.54208 8.13788L6.53508 8.13088L6.52781 8.12416C6.39109 7.99786 6.21179 7.92772 6.02567 7.92772C5.83954 7.92772 5.66024 7.99786 5.52352 8.12416L5.51625 8.13088L5.50925 8.13788L1.22354 12.4236L1.22351 12.4236L1.2186 12.4286C1.18053 12.4678 1.13498 12.4989 1.08467 12.5201C1.03435 12.5414 0.980286 12.5524 0.925665 12.5524C0.871044 12.5524 0.816977 12.5414 0.76666 12.5201C0.716347 12.4989 0.670804 12.4678 0.632727 12.4286L0.632868 12.4285L0.622783 12.4187C0.58362 12.3806 0.55249 12.335 0.531233 12.2847C0.509976 12.2344 0.499023 12.1803 0.499023 12.1257C0.499023 12.0711 0.509976 12.017 0.531233 11.9667C0.55249 11.9164 0.58362 11.8709 0.622783 11.8328L0.622817 11.8328L0.62779 11.8278L4.9135 7.54212L4.9205 7.53513L4.92722 7.52786C5.05352 7.39114 5.12366 7.21184 5.12366 7.02571C5.12366 6.83958 5.05352 6.66029 4.92722 6.52357L4.9205 6.5163L4.9135 6.5093L0.62779 2.22359L0.627825 2.22355L0.622783 2.21865C0.58362 2.18058 0.55249 2.13503 0.531233 2.08472C0.509976 2.0344 0.499023 1.98034 0.499023 1.92571C0.499023 1.87109 0.509976 1.81703 0.531233 1.76671C0.55249 1.71639 0.58362 1.67085 0.622783 1.63278L0.627868 1.62783L0.63281 1.62275C0.707753 1.54563 0.810078 1.50116 0.917591 1.499C1.02337 1.49687 1.12577 1.53585 1.20332 1.60762L5.48354 5.88784L5.49054 5.89484L5.49781 5.90155C5.63453 6.02786 5.81382 6.098 5.99995 6.098C6.18608 6.098 6.36537 6.02786 6.5021 5.90155L6.50936 5.89484L6.51636 5.88784L10.8021 1.60212L10.8021 1.60216L10.807 1.59712C10.8451 1.55796 10.8906 1.52683 10.9409 1.50557C10.9913 1.48431 11.0453 1.47336 11.1 1.47336C11.1546 1.47336 11.2086 1.48431 11.259 1.50557C11.3093 1.52682 11.3548 1.55796 11.3929 1.59712L11.3927 1.59726L11.4028 1.60706C11.442 1.64514 11.4731 1.69068 11.4944 1.741C11.5156 1.79131 11.5266 1.84538 11.5266 1.9C11.5266 1.95462 11.5156 2.00869 11.4944 2.059C11.4731 2.10932 11.442 2.15486 11.4028 2.19294L11.4028 2.1929L11.3978 2.19787L7.11211 6.48359L7.10511 6.49059L7.0984 6.49786C6.97209 6.63458 6.90195 6.81387 6.90195 7C6.90195 7.18613 6.97209 7.36542 7.0984 7.50214Z" fill="#EEEEEE" stroke="black"/>
</svg>