<svg width="24" height="24" viewBox="0 0 24 24" fill="none" xmlns="http://www.w3.org/2000/svg">
<path d="M17.634 14.0061C17.634 14.7573 17.238 15.142 16.5 15.142H7.5C6.762 15.1237 6.366 14.7573 6.366 14.0061C6.366 13.255 6.762 12.8702 7.5 12.8702H16.5C17.238 12.8885 17.634 13.255 17.634 14.0061ZM16.5 15.7282H7.5C6.762 15.7466 6.366 16.113 6.366 16.8641C6.366 17.6153 6.762 18 7.5 18H16.5C17.238 17.9817 17.634 17.6153 17.634 16.8641C17.634 16.113 17.238 15.7466 16.5 15.7282ZM19.308 9.42595C18.57 9.44428 18.174 9.81069 18.174 10.5618V16.8641C18.174 17.6153 18.57 18 19.308 18C20.406 17.9634 21 16.8458 21 14.574V11.716C21 10.1954 20.406 9.4626 19.308 9.42595ZM4.692 9.42595C3.594 9.4626 3 10.1954 3 11.716V14.574C3 16.8458 3.594 17.9634 4.692 18C5.43 17.9817 5.808 17.6153 5.808 16.8641V10.5802C5.808 9.81069 5.412 9.44428 4.692 9.42595ZM19.308 8.85802C19.308 6.95267 18.318 6.03664 16.5 6H7.5C5.664 6.03664 4.692 6.97099 4.692 8.85802C5.79 8.87634 6.384 9.44427 6.384 10.5802C6.384 11.716 6.978 12.284 8.076 12.3023H15.96C17.058 12.284 17.652 11.716 17.652 10.5802C17.634 9.44427 18.21 8.87634 19.308 8.85802Z" fill="#E32829"/>
</svg>
