<svg width="24" height="24" viewBox="0 0 24 24" fill="none" xmlns="http://www.w3.org/2000/svg">
<path d="M16.7607 16.3144C16.8791 15.305 16.8396 15.1526 17.6286 15.324L17.8259 15.3431C18.4176 15.3621 19.2066 15.2478 19.6603 15.0383C20.6465 14.6002 21.2383 13.8574 20.252 14.0479C18.0231 14.4859 17.8653 13.7622 17.8653 13.7622C20.2126 10.3909 21.1988 6.10535 20.3507 5.05778C18.0626 2.2198 14.0584 3.55308 13.9795 3.59117H13.9598C13.5258 3.49594 13.0327 3.45785 12.4804 3.4388C11.4744 3.41975 10.7051 3.68641 10.1331 4.12448C10.1331 4.12448 2.99266 1.28651 3.30826 7.70528C3.38716 9.07665 5.33993 18.0477 7.66748 15.324C8.51566 14.3336 9.34411 13.4955 9.34411 13.4955C9.75833 13.7622 10.2515 13.8955 10.7643 13.8384L10.8038 13.8003C10.784 13.9145 10.8038 14.0479 10.8235 14.1812C10.2317 14.8288 10.3895 14.9431 9.20603 15.1907C7.98308 15.4383 8.71291 15.8573 9.16658 15.9716C9.73861 16.1049 11.0405 16.2954 11.9281 15.1145L11.8886 15.2478C12.1253 15.4383 12.1056 16.5621 12.1451 17.362C12.1845 18.162 12.2437 18.9239 12.4015 19.3619C12.579 19.8 12.7763 20.9428 14.3543 20.619C15.6561 20.3714 16.6818 19.9714 16.7607 16.3144Z" fill="black"/>
<path d="M20.2718 14.0479C18.0428 14.4859 17.885 13.7622 17.885 13.7622C20.2323 10.3909 21.2186 6.10535 20.3704 5.05778C18.0626 2.2198 14.0584 3.55308 13.9795 3.59117H13.9598C13.5258 3.49594 13.0327 3.45785 12.4804 3.4388C11.4744 3.41975 10.7051 3.68641 10.1331 4.12448C10.1331 4.12448 2.99266 1.28651 3.30826 7.70528C3.38716 9.07665 5.33993 18.0477 7.66748 15.324C8.51566 14.3336 9.34411 13.4955 9.34411 13.4955C9.75833 13.7622 10.2515 13.8955 10.7643 13.8384L10.8038 13.8003C10.784 13.9145 10.8038 14.0479 10.8235 14.1812C10.2317 14.8288 10.3895 14.9431 9.20603 15.1907C7.98308 15.4383 8.71291 15.8573 9.16658 15.9716C9.73861 16.1049 11.0405 16.2954 11.9281 15.1145L11.8886 15.2478C12.1253 15.4383 12.2831 16.4287 12.2634 17.343C12.2437 18.2572 12.224 18.8858 12.4015 19.3619C12.579 19.8571 12.7763 20.9428 14.3543 20.619C15.6758 20.3524 16.3662 19.6286 16.4451 18.4477C16.5043 17.6096 16.6621 17.7239 16.6818 16.9811L16.8002 16.6192C16.9382 15.4764 16.8199 15.1145 17.6286 15.2859L17.8259 15.305C18.4176 15.324 19.2066 15.2097 19.6603 15.0002C20.6663 14.6002 21.258 13.8574 20.2718 14.0479Z" fill="#336791"/>
<path d="M13.9006 21C12.579 21 12.145 19.9905 11.9872 19.5715C11.7308 18.962 11.6716 16.6764 11.7308 14.6955C11.7308 14.5431 11.8689 14.4288 12.007 14.4288C12.1648 14.4288 12.2831 14.5622 12.2831 14.6955C12.2239 16.924 12.3226 18.9239 12.5001 19.362C12.7762 20.0476 13.2102 20.6571 14.4331 20.3905C15.6166 20.1429 16.0309 19.7429 16.2281 18.6382C16.3859 17.8001 16.6818 15.4002 16.7212 14.924C16.741 14.7717 16.8593 14.6764 17.0171 14.6764C17.1749 14.6955 17.2735 14.8098 17.2735 14.9621C17.2341 15.4574 16.9382 17.8382 16.7804 18.7144C16.5437 20.0286 15.952 20.619 14.5515 20.9047C14.3148 20.9809 14.0978 21 13.9006 21Z" fill="white"/>
<path d="M6.76009 16.0859C6.62201 16.0859 6.52339 16.0668 6.40504 16.0287C5.53714 15.743 4.72841 14.4098 3.97886 12.0099C3.40684 10.2004 3.05179 8.31479 3.01234 7.68624C2.91371 5.85775 3.40684 4.56256 4.47199 3.83879C5.35961 3.22929 6.60229 3.03882 8.16056 3.28643C9.30461 3.45785 10.1725 3.80069 10.212 3.81974C10.35 3.87688 10.4289 4.02925 10.3698 4.16258C10.3106 4.29591 10.1528 4.3721 10.0147 4.31496C9.97526 4.31496 6.62201 3.01977 4.78759 4.27686C3.89996 4.88636 3.48574 6.02917 3.56464 7.66719C3.58436 8.18146 3.93941 10.029 4.51144 11.8575C5.18209 13.9717 5.93164 15.305 6.60229 15.5145C6.70091 15.5526 7.01651 15.6478 7.45046 15.1335C8.29864 14.1431 9.08764 13.3622 9.08764 13.3431C9.18626 13.2289 9.36379 13.2289 9.48214 13.3431C9.60049 13.4384 9.60049 13.6098 9.48214 13.7241C9.48214 13.7241 8.71286 14.505 7.86469 15.4764C7.47019 15.9526 7.07569 16.0859 6.76009 16.0859Z" fill="white"/>
<path d="M17.8849 14.0098C17.8258 14.0098 17.7863 13.9908 17.7271 13.9717C17.6088 13.8955 17.5693 13.7241 17.6482 13.6098C20.0152 10.2005 20.8634 6.10539 20.1533 5.22924C19.2657 4.12453 18.0033 3.55312 16.4056 3.51503C15.2221 3.49598 14.2753 3.78168 14.1175 3.83882C14.0977 3.83882 14.0977 3.85787 14.078 3.85787C13.9202 3.91501 13.7821 3.81978 13.7427 3.72454C13.6835 3.61026 13.723 3.45789 13.861 3.3817C13.9597 3.32456 15.0445 2.98172 16.3464 3.00076C18.1216 3.01981 19.601 3.68645 20.607 4.92449C20.8634 5.22924 20.9818 5.7435 20.962 6.41014C20.9423 7.03869 20.824 7.80056 20.607 8.61957C20.1336 10.41 19.2262 12.3527 18.1216 13.9146C18.0427 13.9717 17.9638 14.0098 17.8849 14.0098Z" fill="white"/>
<path d="M18.0033 15.5717C17.5891 15.5717 17.234 15.5146 16.9973 15.3812C16.7606 15.2479 16.7212 15.0574 16.7212 14.9622C16.662 13.9337 17.234 13.7432 17.5496 13.648C17.5102 13.5908 17.451 13.5337 17.4115 13.4575C17.234 13.248 16.9973 12.9432 16.8001 12.5052C16.7803 12.429 16.6817 12.2766 16.5831 12.1052C16.0111 11.1147 14.8078 9.03864 15.5771 7.97202C15.9322 7.47681 16.6423 7.28634 17.668 7.38157C17.5299 6.98159 17.1946 6.25781 16.5634 5.53403C15.7941 4.73407 14.4922 3.72458 12.4606 3.68649C11.4349 3.66744 10.5867 3.97219 9.93577 4.60074C8.51557 5.99116 8.55502 8.52438 8.55502 8.54343C8.55502 8.6958 8.43667 8.81008 8.27887 8.81008C8.12107 8.81008 8.00272 8.6958 8.00272 8.54343C8.00272 8.42915 7.94355 5.76259 9.54127 4.2198C10.2908 3.49602 11.2771 3.13413 12.4606 3.15318C14.6698 3.19127 16.1097 4.27694 16.9184 5.19119C17.806 6.18162 18.2203 7.26729 18.2597 7.62918C18.2794 7.91488 18.0625 7.97202 18.023 7.99107H17.9244C16.662 7.8006 16.1886 8.04821 15.9913 8.31487C15.4193 9.11483 16.5436 11.0576 17.017 11.8766C17.1354 12.0861 17.234 12.2385 17.2735 12.3337C17.4313 12.6956 17.6285 12.9432 17.806 13.1528C17.9441 13.3242 18.0822 13.4766 18.1216 13.667C18.1414 13.7051 18.457 14.1051 20.173 13.7623C20.6267 13.667 20.9029 13.7432 20.9818 13.9908C21.1396 14.467 20.2322 15.0193 19.7391 15.2479C19.3249 15.4574 18.6148 15.5717 18.0033 15.5717ZM17.2735 14.9241C17.3326 14.9812 17.6285 15.0574 18.1808 15.0384C18.6937 15.0193 19.2262 14.9051 19.5418 14.7717C19.9166 14.6003 20.173 14.4289 20.3308 14.2765C20.3308 14.2765 20.3308 14.2765 20.3111 14.2765C19.1868 14.5051 18.3781 14.467 17.9244 14.1813C17.9047 14.1622 17.8652 14.1432 17.8455 14.1241C17.806 14.1432 17.7666 14.1432 17.7271 14.1622C17.4707 14.2384 17.234 14.2956 17.2735 14.9241Z" fill="white"/>
<path d="M9.95553 16.3335C9.67938 16.3335 9.3835 16.2954 9.0679 16.2192C8.989 16.2002 8.21973 15.9907 8.21973 15.5335C8.21973 15.0955 8.87065 14.9621 9.10735 14.924C9.95553 14.7526 10.0147 14.6955 10.2711 14.3717C10.35 14.2764 10.4487 14.1622 10.5867 14.0098C11.0207 13.5336 11.4546 13.705 11.6322 13.7622C11.9083 13.8765 12.145 14.1431 12.2436 14.4669C12.3225 14.7526 12.2831 15.0383 12.1253 15.2669C11.5927 15.9716 10.8432 16.3335 9.95553 16.3335ZM8.8312 15.5526C8.9101 15.6097 9.04818 15.6669 9.20598 15.705C9.9358 15.8764 10.9615 15.8954 11.6716 14.9431C11.7505 14.8288 11.7308 14.6764 11.7111 14.6002C11.6716 14.4479 11.5533 14.2955 11.4152 14.2384C11.2574 14.1812 11.1785 14.1431 11.001 14.3336C10.8826 14.4669 10.784 14.5812 10.7051 14.6574C10.3698 15.0764 10.212 15.2097 9.20598 15.4002C9.02845 15.4764 8.9101 15.5335 8.8312 15.5526Z" fill="white"/>
<path d="M10.7643 14.4289C10.6262 14.4289 10.5079 14.3336 10.4882 14.2003C10.4882 14.1622 10.4882 14.1241 10.4684 14.086C9.81751 14.067 9.18631 13.8003 8.71291 13.3242C8.10144 12.7147 7.82528 11.8576 7.96336 11.0005C8.10143 10.0672 8.04226 9.24815 8.02254 8.81007C8.02254 8.69579 8.00281 8.60056 8.00281 8.54342C8.00281 8.46723 8.00281 8.23867 8.73263 7.89583C8.98906 7.7625 9.50191 7.55298 10.0542 7.49584C10.9813 7.40061 11.6125 7.80059 11.79 8.63865C12.2831 10.8481 11.8295 11.8195 11.4941 12.5242C11.435 12.6575 11.3758 12.7718 11.3363 12.9051L11.2969 13.0194C11.1194 13.4765 10.9813 13.8575 11.0207 14.1432C11.0405 14.2956 10.9418 14.4289 10.784 14.4479C10.784 14.4289 10.784 14.4289 10.7643 14.4289ZM8.57483 8.6196C8.57483 8.6577 8.57483 8.71484 8.57483 8.79103C8.59456 9.24815 8.65373 10.1053 8.51566 11.0957C8.41703 11.8004 8.63401 12.4861 9.12713 12.9813C9.50191 13.3623 10.0148 13.5908 10.5276 13.5908C10.5868 13.3623 10.6854 13.0956 10.784 12.8289L10.8235 12.7147C10.8827 12.5813 10.9418 12.448 11.001 12.2956C11.3166 11.61 11.7111 10.7719 11.2574 8.73389C11.1785 8.3339 10.9616 8.10534 10.6065 8.02915C9.87668 7.87678 8.79181 8.42914 8.57483 8.6196Z" fill="white"/>
<path d="M10.0938 8.50531C10.0741 8.60054 10.2516 8.8291 10.4883 8.84815C10.725 8.88624 10.9222 8.69578 10.9222 8.61959C10.942 8.52436 10.7644 8.42912 10.5277 8.41007C10.3108 8.37198 10.0938 8.42912 10.0938 8.50531Z" fill="white"/>
<path d="M10.5474 8.94336C10.5276 8.94336 10.5079 8.94336 10.4882 8.94336C10.3501 8.92432 10.1923 8.82908 10.0937 8.7148C10.0542 8.67671 9.99506 8.58147 10.0148 8.50529C10.0148 8.46719 10.0345 8.4291 10.0937 8.39101C10.1923 8.31482 10.3698 8.29577 10.5671 8.33387C10.8038 8.37196 11.0602 8.48624 11.0405 8.65766C11.001 8.77194 10.7841 8.94336 10.5474 8.94336ZM10.1923 8.52433C10.212 8.58147 10.3304 8.7529 10.5079 8.77194C10.6854 8.79099 10.8235 8.65766 10.8432 8.61957C10.8235 8.60052 10.7249 8.52433 10.5276 8.50529C10.3304 8.46719 10.212 8.50529 10.1923 8.52433Z" fill="white"/>
<path d="M17.1553 8.33395C17.175 8.42919 16.9975 8.65775 16.7608 8.6768C16.5241 8.71489 16.3268 8.52442 16.3268 8.44823C16.3071 8.353 16.4846 8.25777 16.7213 8.23872C16.9383 8.20063 17.1355 8.23872 17.1553 8.33395Z" fill="white"/>
<path d="M16.7016 8.73396C16.4649 8.73396 16.2873 8.56254 16.2676 8.44826C16.2479 8.31493 16.4649 8.2197 16.7016 8.1816C16.9383 8.14351 17.175 8.1816 17.1947 8.31493C17.1947 8.37207 17.1552 8.46731 17.0763 8.54349C17.0172 8.60063 16.9185 8.69587 16.7607 8.71491C16.741 8.73396 16.7213 8.73396 16.7016 8.73396ZM16.8594 8.25779C16.8199 8.25779 16.7805 8.25779 16.7213 8.27684C16.4846 8.31493 16.3662 8.41016 16.3662 8.44826C16.3662 8.5054 16.5438 8.67682 16.7607 8.63873C16.8791 8.61968 16.9777 8.54349 17.0172 8.5054C17.0961 8.42921 17.1158 8.37207 17.1158 8.35302C17.0961 8.31493 17.0172 8.25779 16.8594 8.25779Z" fill="white"/>
<path d="M17.4905 13.3623C17.4313 13.3623 17.3919 13.3432 17.3327 13.3242C17.2144 13.248 17.1749 13.0766 17.2538 12.9623C17.7864 12.1814 17.6878 11.3814 17.5891 10.6195C17.5497 10.2957 17.5102 9.95289 17.5102 9.61005C17.53 9.26721 17.5694 9.00055 17.6089 8.7339C17.668 8.4101 17.7075 8.1244 17.6878 7.76251C17.6878 7.61013 17.8061 7.49585 17.9442 7.47681C18.102 7.47681 18.2203 7.59109 18.2401 7.72442C18.2598 8.14345 18.2006 8.46724 18.1612 8.81008C18.1217 9.05769 18.0823 9.32435 18.0625 9.6291C18.0625 9.9148 18.0823 10.2195 18.1217 10.5433C18.2203 11.3624 18.3387 12.2957 17.6878 13.248C17.668 13.3051 17.5694 13.3623 17.4905 13.3623Z" fill="white"/>
</svg>
