<svg width="24" height="24" viewBox="0 0 24 24" fill="none" xmlns="http://www.w3.org/2000/svg">
<path fill-rule="evenodd" clip-rule="evenodd" d="M10.4905 7.41785C11.0711 6.79373 11.8792 6.40663 12.7731 6.40663C13.9613 6.40663 14.998 7.09028 15.55 8.10518C16.0298 7.88401 16.5608 7.76098 17.1195 7.76098C19.2626 7.76098 21 9.56933 21 11.7999C21 14.0308 19.2626 15.8392 17.1195 15.8392C16.8628 15.8393 16.6068 15.8129 16.3552 15.7606C15.869 16.6553 14.9426 17.2599 13.8793 17.2599C13.4341 17.2599 13.0131 17.1538 12.6382 16.9652C12.1454 18.1613 10.9972 19 9.65897 19C8.26539 19 7.0777 18.0901 6.6218 16.8141C6.42258 16.8577 6.21617 16.8805 6.00436 16.8805C4.34513 16.8805 3 15.4783 3 13.7483C3 12.5889 3.60436 11.5766 4.5023 11.0351C4.31744 10.5961 4.21462 10.1117 4.21462 9.6024C4.21462 7.61281 5.78 6 7.71077 6C8.84436 6 9.85181 6.55613 10.4905 7.41785Z" fill="#00A1E0"/>
<path d="M8.31809 13.3125C8.9959 13.3125 9.54537 12.7668 9.54537 12.0938C9.54537 11.4207 8.9959 10.875 8.31809 10.875C7.64029 10.875 7.09082 11.4207 7.09082 12.0938C7.09082 12.7668 7.64029 13.3125 8.31809 13.3125Z" fill="white"/>
<path d="M12.4092 13.3125C13.087 13.3125 13.6364 12.7668 13.6364 12.0938C13.6364 11.4207 13.087 10.875 12.4092 10.875C11.7314 10.875 11.1819 11.4207 11.1819 12.0938C11.1819 12.7668 11.7314 13.3125 12.4092 13.3125Z" fill="white"/>
<path d="M16.5 13.3125C17.1778 13.3125 17.7273 12.7668 17.7273 12.0938C17.7273 11.4207 17.1778 10.875 16.5 10.875C15.8222 10.875 15.2727 11.4207 15.2727 12.0938C15.2727 12.7668 15.8222 13.3125 16.5 13.3125Z" fill="white"/>
</svg>
